<?xml version="1.0" encoding="utf-8"?>
<!-- Svg Vector Icons : http://www.onlinewebfonts.com/icon -->
<!DOCTYPE svg PUBLIC "-//W3C//DTD SVG 1.1//EN" "http://www.w3.org/Graphics/SVG/1.1/DTD/svg11.dtd">
<svg version="1.1" xmlns="http://www.w3.org/2000/svg" xmlns:xlink="http://www.w3.org/1999/xlink" x="0px" y="0px" viewBox="0 0 1000 1000" enable-background="new 0 0 1000 1000" xml:space="preserve">
<metadata> Svg Vector Icons : http://www.onlinewebfonts.com/icon </metadata>
<g><g transform="translate(0.000000,511.000000) scale(0.100000,-0.100000)"><path d="M5349.8,4979.2c-182.6-35.4-239.9-152.6-288.9-580.6c-16.3-122.7-27.3-359.8-27.3-526.1c0-166.3-19.1-408.9-40.9-537c-152.6-880.4-774.1-1752.7-1687.3-2366C2992,757,2436,487.2,2294.2,476.3l-109-8.2l-5.5,226.2c0,130.8-16.3,242.6-35.4,264.4c-30,35.4-185.3,40.9-1011.3,40.9c-937.7,0-978.5-2.7-1005.8-51.8C108.2,912.4,100,81,100-1557.2c0-2338.7,2.7-2453.2,49.1-2494.1c46.3-40.9,155.4-46.3,989.5-46.3c711.4,0,951.3,8.2,986.7,32.7c35.4,30,43.6,95.4,49.1,362.5c5.4,193.5,19.1,335.3,35.4,346.2c16.4,10.9,106.3,21.8,199,21.8H2575l103.6-139c362.5-496.1,1316.5-864.1,2845.7-1098.5c885.9-136.3,2360.5-250.8,2644-204.4c392.5,62.7,673.3,389.8,741.4,866.8c27.3,174.4,24.5,239.9-10.9,381.6l-40.9,171.7l147.2,136.3c286.2,272.6,398,659.6,294.4,1019.4c-24.6,87.2-68.1,199-98.1,245.3l-49.1,81.8l147.2,147.2c209.9,207.2,318.9,425.2,335.3,667.8c13.6,212.6-38.1,444.3-133.6,610.6l-54.5,89.9l103.6,90c139,119.9,269.8,343.5,321.6,553.3c114.5,441.6-130.8,948.6-553.3,1155.7l-182.6,90l-1382,8.2c-790.5,2.7-1384.7,19.1-1384.7,32.7c0,13.6,43.6,95.4,95.4,182.6c466.1,782.3,577.9,1913.5,258.9,2584C6481,4845.7,5946.8,5093.7,5349.8,4979.2z M5856.8,4703.9c452.5-95.4,686.9-425.2,757.8-1057.6c73.6-662.4-160.8-1469.2-605.1-2085.2c-90-122.7-95.4-182.6-27.3-242.6c43.6-40.9,212.6-46.3,1572.8-51.8c1507.4-8.2,1529.1-8.2,1638.2-68.1c253.5-136.3,395.2-357.1,414.3-648.7c8.2-158.1,0-218.1-46.3-329.8c-70.9-160.8-215.3-310.7-370.7-384.4c-149.9-68.1-152.6-136.3-16.3-308c199-253.5,242.6-569.7,114.5-820.4c-81.8-158.1-174.4-256.2-348.9-370.7c-169-109-179.9-160.8-62.7-308c305.3-384.3,223.5-855.9-193.5-1153c-182.6-125.4-196.3-174.5-103.6-332.5c119.9-201.7,60-626.9-117.2-842.3c-128.1-155.4-261.7-207.1-553.3-207.1c-537,0-1741.8,117.2-2510.4,245.3C3902.5-4010.4,3106.5-3686,2850.3-3225.3c-76.3,141.7-117.2,158.1-436.1,160.8l-237.1,2.7v1616.4L2174.3,171l177.2,30c209.9,35.4,697.8,264.4,1041.2,487.9c932.2,605.1,1570,1422.9,1818.1,2333.3c60,209.9,76.3,348.9,95.4,825.9c13.6,316.2,38.2,635.1,54.5,714.2c27.3,122.7,40.9,141.7,103.6,152.6C5608.8,4736.7,5715.1,4733.9,5856.8,4703.9z M1899-1549v-2276l-755,5.5l-757.8,8.2L378-1540.8L372.6,727h763.2H1899V-1549z"/><path d="M923.2-2764.7c-338-171.7-332.5-676,10.9-842.3c245.3-119.9,528.8-19.1,640.6,229c65.4,141.7,65.4,245.3,0,387.1C1460.2-2742.9,1168.5-2639.3,923.2-2764.7z M1231.2-2996.4c21.8-10.9,62.7-54.5,84.5-98.1c32.7-65.4,35.4-98.1,10.9-158.1c-30-73.6-125.4-136.3-207.2-136.3c-65.4,0-174.4,128.1-174.4,204.4C945-3050.9,1103.1-2947.3,1231.2-2996.4z"/></g></g>
</svg>