<svg id="Capa_1" enable-background="new 0 0 511.999 511.999" height="512" viewBox="0 0 511.999 511.999" width="512" xmlns="http://www.w3.org/2000/svg"><path d="m487.197 226.219c1.86-1.559 3.67-3.223 5.416-4.987 12.85-12.991 19.904-29.352 19.355-44.886-.598-16.951-7.99-33.231-20.282-44.668-.316-.295-.635-.585-.956-.871 11.117-11.337 17.824-27.612 17.196-45.423-.643-18.222-8.761-36.295-21.715-48.347-10.193-9.483-22.728-14.448-35.251-13.99l-172.902 5.967c-.266-.006-.512.003-.768.015l-1.36.059c-.022.001-.044.002-.065.003-33.752 1.514-61.302 6.899-92.12 18.009-16.798 6.056-32.936 13.848-47.971 23.161l-23.828 13.199c-1.884-6.13-7.59-10.588-14.338-10.588h-82.608c-8.284 0-15 6.716-15 15v212.308c0 8.284 6.716 15 15 15h82.608c8.284 0 15-6.716 15-15v-2.548c12.333 8.331 26.808 14.422 41.446 16.964 18.523 3.218 34.365 11.688 44.607 23.853 13.857 16.456 34.085 72.49 43.95 137.774 1.112 7.358 7.438 12.759 14.825 12.759.186 0 .373-.003.56-.01l25.656-.946c34.73-1.28 62.074-28.08 60.957-59.741l-3.259-92.406 106.811-4.972 5.211-.191c30.334-1.119 54.072-28.72 52.915-61.528-.58-16.503-7.536-32.153-19.09-42.969zm-457.197 58.96v-182.308h52.608v5.754.101 176.452h-52.608zm404.689-57.969c.306 8.278 7.222 14.741 15.543 14.438 5.91-.222 11.723 2.061 16.403 6.416 5.842 5.436 9.367 13.519 9.673 22.179.574 16.304-10.21 29.982-24.039 30.491l-5.282.194c-.049.002-.097.004-.146.007l-121.701 5.665c-8.21.382-14.583 7.299-14.293 15.512l3.782 107.229c.534 15.155-13.857 28.032-32.082 28.703l-12.442.459c-9.417-53.388-28.12-115.181-48.495-139.378-14.783-17.558-36.952-29.663-62.422-34.087-18.444-3.204-37.599-14.987-46.58-28.43v-139.222l38.026-21.063c.22-.121.437-.249.651-.382 13.345-8.295 27.689-15.233 42.634-20.62 27.777-10.014 52.657-14.878 83.173-16.256h.038c.36-.003.906-.007 1.586-.057l173.315-5.98c5.818-.244 10.69 3.13 13.746 5.973 7.143 6.646 11.806 17.16 12.169 27.44.574 16.304-10.21 29.981-24.04 30.491-8.093.299-14.451 6.955-14.447 14.987 0 .184.003.369.01.556.299 8.091 6.951 14.448 14.98 14.447.187 0 .374-.003.563-.01 5.605-.22 11.354 2.184 16.239 6.729 6.409 5.962 10.423 14.845 10.737 23.762.48 13.636-16.434 33.658-32.862 34.264-8.093.299-14.451 6.955-14.447 14.987 0 .185.003.37.01.556z"/></svg>