<?xml version="1.0" standalone="no"?>
<!DOCTYPE svg PUBLIC "-//W3C//DTD SVG 20010904//EN"
 "http://www.w3.org/TR/2001/REC-SVG-20010904/DTD/svg10.dtd">
<svg version="1.0" xmlns="http://www.w3.org/2000/svg"
 width="1222.000000pt" height="1280.000000pt" viewBox="0 0 1222.000000 1280.000000"
 preserveAspectRatio="xMidYMid meet">
<metadata>
Created by potrace 1.15, written by Peter Selinger 2001-2017
</metadata>
<g transform="translate(0.000000,1280.000000) scale(0.100000,-0.100000)"
fill="#26d07c" stroke="none">
<path d="M7258 12774 c-60 -19 -84 -33 -112 -64 -42 -47 -52 -83 -61 -215 -18
-291 -98 -951 -150 -1240 -83 -456 -247 -909 -432 -1190 -133 -201 -233 -303
-568 -576 -331 -269 -493 -448 -600 -664 -30 -60 -115 -254 -188 -430 -257
-610 -395 -906 -578 -1235 -404 -727 -746 -1118 -1086 -1242 -49 -18 -85 -21
-227 -24 -93 -2 -173 -7 -177 -11 -12 -12 -12 -5224 -1 -5235 5 -5 27 -13 48
-18 45 -10 716 -135 1129 -210 273 -50 946 -176 1312 -246 101 -19 242 -39
315 -44 73 -6 207 -17 298 -25 486 -43 917 -65 1910 -96 766 -24 1478 9 1851
85 274 57 469 154 729 363 180 145 414 400 478 522 63 119 64 127 66 466 1
290 2 313 22 361 39 95 98 168 305 374 271 270 347 373 385 520 35 137 13 235
-134 600 -89 221 -112 303 -112 400 0 124 41 189 315 505 188 215 237 315 217
433 -14 85 -60 177 -209 425 -192 319 -223 400 -199 517 15 72 49 128 208 343
71 95 145 206 165 247 36 71 38 80 38 170 -1 85 -5 108 -42 216 -51 148 -119
286 -210 424 -159 239 -329 429 -465 518 -174 113 -368 154 -883 187 -515 33
-1594 45 -2222 25 -467 -15 -452 -15 -475 8 -46 46 -62 256 -33 428 51 296
167 579 558 1361 209 416 250 524 327 847 60 254 64 294 64 636 1 339 -3 384
-56 600 -87 361 -195 573 -396 776 -140 141 -304 254 -468 321 -73 30 -143 49
-351 98 -94 23 -214 18 -305 -11z"/>
<path d="M435 6135 c-94 -18 -145 -37 -210 -81 -94 -62 -179 -178 -200 -271
-3 -18 -11 -35 -16 -38 -12 -8 -12 -5078 0 -5090 5 -6 16 -35 25 -66 41 -143
202 -284 364 -318 37 -8 310 -11 880 -11 911 0 896 -1 1016 63 139 73 234 211
259 377 3 19 7 1146 9 2505 2 2373 2 2473 -16 2540 -51 194 -178 328 -360 379
-68 20 -104 20 -876 23 -638 1 -820 -1 -875 -12z"/>
</g>
</svg>
